<svg width="615" height="682" viewBox="0 0 615 682" fill="none" xmlns="http://www.w3.org/2000/svg">
<path d="M246.338 107.955C345.043 76.4773 446.507 59.4726 544.309 24.0313C585.484 9.12347 629.726 -9.18532 669.403 5.26226C702.828 17.434 725.246 50.3182 752.704 74.0992C776.263 94.5048 805.861 110.768 816.178 142.297C827.922 178.122 810.187 218.549 795.567 254.911C760.43 342.338 741.174 436.312 702.115 521.872C663.056 607.432 596.919 687.776 513.309 703.784C458.988 714.191 405.403 696.215 351.034 693.888C329.472 692.967 306.911 694.348 287.56 684.836C273.273 677.829 261.98 665.427 251.116 653.127C182.554 575.443 14.4075 412.352 0.642909 298.075C-11.9093 193.873 162.514 134.677 246.338 107.955Z" fill="url(#paint0_linear_40_1244)"/>
<defs>
<linearGradient id="paint0_linear_40_1244" x1="410" y1="0" x2="410" y2="707" gradientUnits="userSpaceOnUse">
<stop stop-color="#FEA4A4"/>
<stop offset="1" stop-color="white"/>
</linearGradient>
</defs>
</svg>
